<?xml version="1.0" encoding="utf-8"?>
<!-- Generator: Adobe Illustrator 24.1.1, SVG Export Plug-In . SVG Version: 6.00 Build 0)  -->
<svg version="1.1" id="Layer_1" xmlns="http://www.w3.org/2000/svg" xmlns:xlink="http://www.w3.org/1999/xlink" x="0px" y="0px"
	 viewBox="0 0 512 512" style="enable-background:new 0 0 512 512;" xml:space="preserve">
<style type="text/css">
	.st0{fill:#444444;}
</style>
<g>
	<path class="st0" d="M102.3,322.8c0,20.6-14.3,37.4-31.8,37.4s-31.8-16.8-31.8-37.4V200.5c0-20.6,14.3-37.4,31.8-37.4
		s31.8,16.8,31.8,37.4V322.8z M473.4,322.8c0,20.6-14.3,37.4-31.8,37.4c-17.5,0-31.8-16.8-31.8-37.4V200.5
		c0-20.6,14.3-37.4,31.8-37.4c17.5,0,31.8,16.8,31.8,37.4V322.8z M325.6,44.8L346,8.2c1.7-3,1.2-6.5-1.1-7.7
		c-2.3-1.2-5.5,0.2-7.1,3.1l-20.9,37.5c-18.6-7.3-39.5-11.4-61.6-11.4c-22.2,0-43.2,4.2-62,11.6l-21-37.7c-1.7-3-4.9-4.4-7.2-3.1
		c-2.3,1.3-2.8,4.7-1.1,7.7L184.6,45c-42.7,20.1-71.5,57.7-71.5,100.9c0,4.4,0.3,8.7,0.9,13h282.6c0.6-4.3,0.9-8.6,0.9-13
		C397.5,102.6,368.5,64.9,325.6,44.8L325.6,44.8z M190.8,108.8c-6.9,0-12.4-5.6-12.4-12.4c0-6.9,5.6-12.4,12.4-12.4
		c6.9,0,12.4,5.6,12.4,12.4C203.2,103.2,197.6,108.8,190.8,108.8z M320.5,108.8c-6.9,0-12.4-5.6-12.4-12.4c0-6.9,5.6-12.4,12.4-12.4
		c6.9,0,12.4,5.6,12.4,12.4C333,103.2,327.4,108.8,320.5,108.8z M113.1,171.2v208.4h0.1c1.5,17.6,17.6,31.6,37.3,31.6h209.6
		c19.6,0,35.8-14,37.3-31.6h0.1V171.2H113.1L113.1,171.2z M234.9,410.2v64.5c0,20.6-14.3,37.4-31.8,37.4s-31.8-16.8-31.8-37.4v-64.4
		L234.9,410.2z M341,410.1v64.5c0,20.6-14.3,37.4-31.8,37.4c-17.5,0-31.8-16.8-31.8-37.4v-64.5H341z"/>
</g>
</svg>
